<mxfile host="Electron" agent="Mozilla/5.0 (Windows NT 10.0; Win64; x64) AppleWebKit/537.36 (KHTML, like Gecko) draw.io/27.0.5 Chrome/134.0.6998.205 Electron/35.3.0 Safari/537.36" version="27.0.5">
  <diagram name="第 1 页" id="qYCC977JJtGFKBxbnr1P">
    <mxGraphModel dx="793" dy="488" grid="1" gridSize="10" guides="1" tooltips="1" connect="1" arrows="1" fold="1" page="1" pageScale="1" pageWidth="827" pageHeight="1169" math="0" shadow="0">
      <root>
        <mxCell id="0" />
        <mxCell id="1" parent="0" />
        <mxCell id="83ebNcft9Qn9WwzoEkK6-1" value="" style="swimlane;childLayout=stackLayout;resizeParent=1;resizeParentMax=0;startSize=0;html=1;" parent="1" vertex="1">
          <mxGeometry x="40" y="40" width="480" height="690" as="geometry">
            <mxRectangle x="150.00000000000045" y="-20" width="60" height="30" as="alternateBounds" />
          </mxGeometry>
        </mxCell>
        <mxCell id="83ebNcft9Qn9WwzoEkK6-2" value="使用者" style="swimlane;startSize=20;html=1;" parent="83ebNcft9Qn9WwzoEkK6-1" vertex="1">
          <mxGeometry width="160" height="690" as="geometry">
            <mxRectangle width="40" height="480" as="alternateBounds" />
          </mxGeometry>
        </mxCell>
        <mxCell id="83ebNcft9Qn9WwzoEkK6-6" value="" style="edgeStyle=orthogonalEdgeStyle;html=1;verticalAlign=bottom;endArrow=open;endSize=8;strokeColor=#ff0000;rounded=0;entryX=0.5;entryY=0;entryDx=0;entryDy=0;exitX=0.5;exitY=0.5;exitDx=0;exitDy=0;exitPerimeter=0;" parent="83ebNcft9Qn9WwzoEkK6-2" source="83ebNcft9Qn9WwzoEkK6-5" target="83ebNcft9Qn9WwzoEkK6-13" edge="1">
          <mxGeometry relative="1" as="geometry">
            <mxPoint x="79.74999999999955" y="125" as="targetPoint" />
            <mxPoint x="79.7499999999996" y="70" as="sourcePoint" />
          </mxGeometry>
        </mxCell>
        <mxCell id="83ebNcft9Qn9WwzoEkK6-5" value="" style="ellipse;html=1;shape=startState;fillColor=#000000;strokeColor=#ff0000;" parent="83ebNcft9Qn9WwzoEkK6-2" vertex="1">
          <mxGeometry x="64.99999999999955" y="45" width="30" height="30" as="geometry" />
        </mxCell>
        <mxCell id="83ebNcft9Qn9WwzoEkK6-13" value="&lt;span style=&quot;background-color: transparent; color: light-dark(rgb(0, 0, 0), rgb(237, 237, 237));&quot;&gt;收藏介面&lt;/span&gt;" style="rounded=1;whiteSpace=wrap;html=1;arcSize=40;fontColor=#000000;fillColor=#ffffc0;strokeColor=#ff0000;" parent="83ebNcft9Qn9WwzoEkK6-2" vertex="1">
          <mxGeometry x="19.999999999999545" y="120" width="120" height="40" as="geometry" />
        </mxCell>
        <mxCell id="57ecWpFoycv0x15EtqGb-1" value="再次點選收藏" style="rounded=1;whiteSpace=wrap;html=1;arcSize=40;fontColor=#000000;fillColor=#ffffc0;strokeColor=#ff0000;" parent="83ebNcft9Qn9WwzoEkK6-2" vertex="1">
          <mxGeometry x="20" y="360" width="120" height="40" as="geometry" />
        </mxCell>
        <mxCell id="f2sAZ-HtLmMp5lVQW-1R-4" value="選擇地點" style="rounded=1;whiteSpace=wrap;html=1;arcSize=40;fontColor=#000000;fillColor=#ffffc0;strokeColor=#ff0000;" parent="83ebNcft9Qn9WwzoEkK6-2" vertex="1">
          <mxGeometry x="19.999999999999545" y="280" width="120" height="40" as="geometry" />
        </mxCell>
        <mxCell id="f2sAZ-HtLmMp5lVQW-1R-5" value="" style="edgeStyle=orthogonalEdgeStyle;html=1;verticalAlign=bottom;endArrow=open;endSize=8;strokeColor=#ff0000;rounded=0;entryX=0.5;entryY=0;entryDx=0;entryDy=0;" parent="83ebNcft9Qn9WwzoEkK6-2" source="f2sAZ-HtLmMp5lVQW-1R-4" target="57ecWpFoycv0x15EtqGb-1" edge="1">
          <mxGeometry relative="1" as="geometry">
            <mxPoint x="379.99999999999955" y="320" as="targetPoint" />
          </mxGeometry>
        </mxCell>
        <mxCell id="f2sAZ-HtLmMp5lVQW-1R-2" value="顯示確認視窗" style="rounded=1;whiteSpace=wrap;html=1;arcSize=40;fontColor=#000000;fillColor=#ffffc0;strokeColor=#ff0000;" parent="83ebNcft9Qn9WwzoEkK6-2" vertex="1">
          <mxGeometry x="180" y="360" width="120" height="40" as="geometry" />
        </mxCell>
        <mxCell id="57ecWpFoycv0x15EtqGb-2" value="" style="edgeStyle=orthogonalEdgeStyle;html=1;verticalAlign=bottom;endArrow=open;endSize=8;strokeColor=#ff0000;rounded=0;entryX=0;entryY=0.5;entryDx=0;entryDy=0;" parent="83ebNcft9Qn9WwzoEkK6-2" source="57ecWpFoycv0x15EtqGb-1" edge="1" target="f2sAZ-HtLmMp5lVQW-1R-2">
          <mxGeometry relative="1" as="geometry">
            <mxPoint x="80" y="440" as="targetPoint" />
          </mxGeometry>
        </mxCell>
        <mxCell id="CTjzdFHLhKo7Aabi3PH9-5" value="進入列表" style="rounded=1;whiteSpace=wrap;html=1;arcSize=40;fontColor=#000000;fillColor=#ffffc0;strokeColor=#ff0000;" vertex="1" parent="83ebNcft9Qn9WwzoEkK6-2">
          <mxGeometry x="20" y="200" width="120" height="40" as="geometry" />
        </mxCell>
        <mxCell id="CTjzdFHLhKo7Aabi3PH9-6" value="" style="edgeStyle=orthogonalEdgeStyle;html=1;verticalAlign=bottom;endArrow=open;endSize=8;strokeColor=#ff0000;rounded=0;" edge="1" source="CTjzdFHLhKo7Aabi3PH9-5" parent="83ebNcft9Qn9WwzoEkK6-2">
          <mxGeometry relative="1" as="geometry">
            <mxPoint x="80" y="280" as="targetPoint" />
          </mxGeometry>
        </mxCell>
        <mxCell id="83ebNcft9Qn9WwzoEkK6-3" value="系統" style="swimlane;startSize=20;html=1;" parent="83ebNcft9Qn9WwzoEkK6-1" vertex="1">
          <mxGeometry x="160" width="320" height="690" as="geometry">
            <mxRectangle x="120" width="40" height="480" as="alternateBounds" />
          </mxGeometry>
        </mxCell>
        <mxCell id="83ebNcft9Qn9WwzoEkK6-35" value="" style="edgeStyle=orthogonalEdgeStyle;html=1;verticalAlign=bottom;endArrow=open;endSize=8;strokeColor=#ff0000;rounded=0;entryX=0.5;entryY=0;entryDx=0;entryDy=0;" parent="83ebNcft9Qn9WwzoEkK6-3" source="83ebNcft9Qn9WwzoEkK6-34" edge="1" target="83ebNcft9Qn9WwzoEkK6-51">
          <mxGeometry relative="1" as="geometry">
            <mxPoint x="79.99999999999955" y="600" as="targetPoint" />
          </mxGeometry>
        </mxCell>
        <mxCell id="83ebNcft9Qn9WwzoEkK6-41" value="顯示刪除成功" style="rounded=1;whiteSpace=wrap;html=1;arcSize=40;fontColor=#000000;fillColor=#ffffc0;strokeColor=#ff0000;" parent="83ebNcft9Qn9WwzoEkK6-3" vertex="1">
          <mxGeometry x="179.99999999999955" y="600" width="120" height="40" as="geometry" />
        </mxCell>
        <mxCell id="83ebNcft9Qn9WwzoEkK6-34" value="顯示刪除失敗" style="rounded=1;whiteSpace=wrap;html=1;arcSize=40;fontColor=#000000;fillColor=#ffffc0;strokeColor=#ff0000;" parent="83ebNcft9Qn9WwzoEkK6-3" vertex="1">
          <mxGeometry x="19.999999999999545" y="520" width="120" height="40" as="geometry" />
        </mxCell>
        <mxCell id="83ebNcft9Qn9WwzoEkK6-51" value="" style="ellipse;html=1;shape=endState;fillColor=#000000;strokeColor=#ff0000;" parent="83ebNcft9Qn9WwzoEkK6-3" vertex="1">
          <mxGeometry x="-95.00000000000045" y="605" width="30" height="30" as="geometry" />
        </mxCell>
        <mxCell id="83ebNcft9Qn9WwzoEkK6-42" value="" style="edgeStyle=orthogonalEdgeStyle;html=1;verticalAlign=bottom;endArrow=open;endSize=8;strokeColor=#ff0000;rounded=0;exitX=0;exitY=0.5;exitDx=0;exitDy=0;entryX=1;entryY=0.5;entryDx=0;entryDy=0;" parent="83ebNcft9Qn9WwzoEkK6-3" source="83ebNcft9Qn9WwzoEkK6-41" target="83ebNcft9Qn9WwzoEkK6-51" edge="1">
          <mxGeometry relative="1" as="geometry">
            <mxPoint x="59.999999999999545" y="860" as="targetPoint" />
            <Array as="points" />
          </mxGeometry>
        </mxCell>
        <mxCell id="CTjzdFHLhKo7Aabi3PH9-1" value="" style="rhombus;whiteSpace=wrap;html=1;fontColor=#000000;fillColor=#ffffc0;strokeColor=#ff0000;" vertex="1" parent="83ebNcft9Qn9WwzoEkK6-3">
          <mxGeometry x="40" y="440" width="80" height="40" as="geometry" />
        </mxCell>
        <mxCell id="CTjzdFHLhKo7Aabi3PH9-3" value="取消刪除" style="edgeStyle=orthogonalEdgeStyle;html=1;align=left;verticalAlign=top;endArrow=open;endSize=8;strokeColor=#ff0000;rounded=0;entryX=0.5;entryY=0;entryDx=0;entryDy=0;" edge="1" parent="83ebNcft9Qn9WwzoEkK6-3" source="CTjzdFHLhKo7Aabi3PH9-1" target="83ebNcft9Qn9WwzoEkK6-34">
          <mxGeometry x="-1" relative="1" as="geometry">
            <mxPoint x="250" y="360" as="targetPoint" />
          </mxGeometry>
        </mxCell>
        <mxCell id="CTjzdFHLhKo7Aabi3PH9-2" value="確定刪除" style="edgeStyle=orthogonalEdgeStyle;html=1;align=left;verticalAlign=bottom;endArrow=open;endSize=8;strokeColor=#ff0000;rounded=0;entryX=0.5;entryY=0;entryDx=0;entryDy=0;" edge="1" parent="83ebNcft9Qn9WwzoEkK6-3" source="CTjzdFHLhKo7Aabi3PH9-1" target="CTjzdFHLhKo7Aabi3PH9-8">
          <mxGeometry x="-1" relative="1" as="geometry">
            <mxPoint x="410" y="360" as="targetPoint" />
          </mxGeometry>
        </mxCell>
        <mxCell id="CTjzdFHLhKo7Aabi3PH9-7" value="" style="edgeStyle=orthogonalEdgeStyle;html=1;verticalAlign=bottom;endArrow=open;endSize=8;strokeColor=#ff0000;rounded=0;entryX=0.5;entryY=0;entryDx=0;entryDy=0;" edge="1" parent="83ebNcft9Qn9WwzoEkK6-3" source="CTjzdFHLhKo7Aabi3PH9-8" target="83ebNcft9Qn9WwzoEkK6-41">
          <mxGeometry relative="1" as="geometry">
            <mxPoint x="80" y="605" as="targetPoint" />
          </mxGeometry>
        </mxCell>
        <mxCell id="CTjzdFHLhKo7Aabi3PH9-8" value="紀錄刪除收藏" style="rounded=1;whiteSpace=wrap;html=1;arcSize=40;fontColor=#000000;fillColor=#ffffc0;strokeColor=#ff0000;" vertex="1" parent="83ebNcft9Qn9WwzoEkK6-3">
          <mxGeometry x="179.99999999999955" y="520" width="120" height="40" as="geometry" />
        </mxCell>
        <mxCell id="83ebNcft9Qn9WwzoEkK6-14" value="" style="edgeStyle=orthogonalEdgeStyle;html=1;verticalAlign=bottom;endArrow=open;endSize=8;strokeColor=#ff0000;rounded=0;exitX=0.5;exitY=1;exitDx=0;exitDy=0;" parent="83ebNcft9Qn9WwzoEkK6-1" source="83ebNcft9Qn9WwzoEkK6-13" edge="1">
          <mxGeometry relative="1" as="geometry">
            <mxPoint x="80" y="200" as="targetPoint" />
          </mxGeometry>
        </mxCell>
        <mxCell id="f2sAZ-HtLmMp5lVQW-1R-3" value="" style="edgeStyle=orthogonalEdgeStyle;html=1;verticalAlign=bottom;endArrow=open;endSize=8;strokeColor=#ff0000;rounded=0;" parent="83ebNcft9Qn9WwzoEkK6-1" source="f2sAZ-HtLmMp5lVQW-1R-2" edge="1">
          <mxGeometry relative="1" as="geometry">
            <mxPoint x="240" y="440" as="targetPoint" />
          </mxGeometry>
        </mxCell>
      </root>
    </mxGraphModel>
  </diagram>
</mxfile>
